<?xml version="1.0" encoding="UTF-8"?>
<svg width="40px" height="40px" viewBox="0 0 40 40" version="1.1" xmlns="http://www.w3.org/2000/svg" xmlns:xlink="http://www.w3.org/1999/xlink">
    <!-- Generator: Sketch 53.2 (72643) - https://sketchapp.com -->
    <title>telegram-seeklogo.com</title>
    <desc>Created with Sketch.</desc>
    <defs>
        <linearGradient x1="49.9777715%" y1="-3.74573922e-05%" x2="49.9777715%" y2="99.6021276%" id="linearGradient-1">
            <stop stop-color="#47BDE9" offset="0%"></stop>
            <stop stop-color="#2EA9DE" offset="100%"></stop>
        </linearGradient>
    </defs>
    <g id="Page-1" stroke="none" stroke-width="1" fill="none" fill-rule="evenodd">
        <g id="Поддержка-Открыто" transform="translate(-1740.000000, -860.000000)">
            <g id="Group-41" transform="translate(1720.000000, 716.000000)">
                <g id="Group-45" transform="translate(8.000000, 0.000000)">
                    <g id="Group-47">
                        <g id="telegram-seeklogo.com" transform="translate(12.000000, 144.000000)">
                            <circle id="Oval" fill="url(#linearGradient-1)" cx="20" cy="20" r="20"></circle>
                            <g id="Group-39" transform="translate(7.142304, 10.808471)">
                                <path d="M22.5761974,0.691154346 L19.0055607,18.6937761 C19.0055607,18.6937761 18.506085,19.9420907 17.1329015,19.3428397 L8.89320115,13.025836 L5.89694647,11.5776712 L0.853350964,9.87976858 C0.853350964,9.87976858 0.079118754,9.60501202 0.00421238691,9.00576109 C-0.0706939801,8.40651015 0.878219878,8.08201577 0.878219878,8.08201577 L20.9282573,0.21684723 C20.9282573,0.21684723 22.5761974,-0.507347527 22.5761974,0.691154346" id="Fill-4" fill="#FFFFFF"></path>
                                <path d="M8.259718,18.4916038 C8.259718,18.4916038 8.01919366,18.469057 7.71956819,17.520218 C7.41994272,16.5713042 5.89694647,11.5776712 5.89694647,11.5776712 L18.006909,3.88725921 C18.006909,3.88725921 18.7059352,3.46291465 18.6810663,3.88725921 C18.6810663,3.88725921 18.8057105,3.96216558 18.4311787,4.3117536 C18.0566468,4.66141652 8.91807006,12.8760233 8.91807006,12.8760233" id="Fill-5" fill="#D4E6F2"></path>
                                <path d="M12.0524521,15.4479334 L8.79342587,18.4193191 C8.79342587,18.4193191 8.53859441,18.6127274 8.259718,18.4916038 L8.88383786,12.9719783" id="Fill-6" fill="#B7D1E5"></path>
                            </g>
                        </g>
                    </g>
                </g>
            </g>
        </g>
    </g>
</svg>