<?xml version="1.0" encoding="UTF-8"?>
<svg width="37px" height="40px" viewBox="0 0 37 40" version="1.1" xmlns="http://www.w3.org/2000/svg" xmlns:xlink="http://www.w3.org/1999/xlink">
    <!-- Generator: Sketch 53.2 (72643) - https://sketchapp.com -->
    <title>viber-seeklogo.com copy</title>
    <desc>Created with Sketch.</desc>
    <defs>
        <polygon id="path-1" points="1.27801245e-05 0.0979240506 36.9620253 0.0979240506 36.9620253 39.9939241 1.27801245e-05 39.9939241"></polygon>
    </defs>
    <g id="Page-1" stroke="none" stroke-width="1" fill="none" fill-rule="evenodd">
        <g id="Поддержка-Открыто" transform="translate(-1741.000000, -794.000000)">
            <g id="Group-41" transform="translate(1720.000000, 716.000000)">
                <g id="Group-45" transform="translate(8.000000, 0.000000)">
                    <g id="Group-47">
                        <g id="viber-seeklogo.com-copy" transform="translate(13.000000, 78.000000)">
                            <g id="Group-3">
                                <mask id="mask-2" fill="white">
                                    <use xlink:href="#path-1"></use>
                                </mask>
                                <g id="Clip-2"></g>
                                <path d="M4,6 C6.49435764,3.22639974 9.83151584,1.83959961 14.0114746,1.83959961 C16.1264559,1.83959961 20.1166811,1.83555893 23.4851074,2.36254883 C25.6776326,2.70556914 29.1825968,3.91805286 34,6 C35.0060221,11.5197973 35.5090332,15.6309872 35.5090332,18.3335696 C35.5090332,21.0361521 35.0060221,24.9249622 34,30 C26.4948459,32.5377604 20.9729546,33.8066406 17.4343262,33.8066406 C16.7519539,33.8066406 15.8245573,34.1616638 14.5743408,35.4313965 C13.0849746,36.9440121 11.2413868,39.3974653 10.2460937,39.151123 C9.03424961,38.8511828 10.6101701,36.2249999 8.96105957,33.1402588 C8.54733161,32.3663606 6.89364509,31.3196077 4,30 L1.39038086,18.8051758 L4,6 Z" id="Rectangle" fill="#774483" mask="url(#mask-2)"></path>
                                <path d="M32.7893671,3.98703797 C31.820962,3.07483544 27.9067342,0.166075949 19.1887595,0.126582278 C19.1887595,0.126582278 8.90896203,-0.508658228 3.89741772,4.19837975 C1.10805063,7.05468354 0.126582278,11.2328101 0.0226835443,16.4163038 C-0.08,21.5996962 -0.214987342,31.3099747 8.92931646,33.9441013 L8.93762025,33.9464304 L8.93286076,37.964557 C8.93286076,37.964557 8.8755443,39.5921013 9.92040506,39.9228354 C11.1861266,40.3251646 11.9288101,39.0882025 13.1372152,37.7555443 C13.8011139,37.0248101 14.7157468,35.9500759 15.4059747,35.1286076 C21.660557,35.6648101 26.4702785,34.4348354 27.016,34.2533671 C28.2792911,33.8331139 35.4247089,32.8969114 36.5865316,23.1866329 C37.7854177,13.1742785 36.0050633,6.84334177 32.7893671,3.98703797 M33.8699747,22.4629873 C32.8872911,30.5720506 27.0935696,31.0842532 26.0261266,31.4352405 C25.5711392,31.5845063 21.3453165,32.6604557 16.0340253,32.3046076 L10.2762532,38.6857722 L10.2702785,31.332557 L10.2249114,31.3207089 C2.48962025,29.1212152 2.74997468,20.8748354 2.83706329,16.5463291 C2.92425316,12.2178228 3.71837975,8.67139241 6.07898734,6.28688608 C10.3168608,2.35594937 19.0491139,2.94349367 19.0491139,2.94349367 C26.4236962,2.97691139 29.9581772,5.24921519 30.7773165,6.01103797 C33.4974177,8.39686076 34.8837468,14.1032911 33.8699747,22.4629873" id="Fill-1" fill="#774483" mask="url(#mask-2)"></path>
                            </g>
                            <g id="Group-38" transform="translate(8.147953, 8.409044)" fill="#FFFFFF">
                                <path d="M19.0639962,15.2635634 C19.0603506,15.260019 17.8914392,14.2629558 17.3206038,13.8330823 C16.7820722,13.4283228 15.9235405,12.8838165 15.4435405,12.6067532 C14.5825785,12.116019 13.7025785,12.4240697 13.3395405,12.9065001 L12.5849076,13.8773355 C12.1980722,14.3692849 11.6022241,14.2868545 11.4457684,14.254652 C10.3305279,13.9751583 9.14480634,13.2778418 7.93154051,12.1028545 C6.70409747,10.9172342 5.96131266,9.67895576 5.69630001,8.39176588 L5.67716077,8.30690512 C5.60546456,7.77789247 5.69386963,7.53313297 5.90997089,7.17262664 L5.95057849,7.13910766 C6.4604519,6.66508234 7.4050595,6.08837348 7.53154051,5.53900639 C7.90288228,4.58498107 6.29093292,2.59571525 6.0604519,2.24462664 C6.0604519,2.24462664 4.88789494,0.692322846 4.47118608,0.396120314 C4.02095823,0.0212342379 3.32364178,-0.192537914 2.62035064,0.239765883 L2.58450254,0.265993732 C0.564148107,1.63318361 -0.16780126,2.41890512 0.0315911454,3.59156335 L0.13548988,4.06315829 C1.15999621,7.29313297 3.13852785,10.7368798 6.08911013,13.8033102 C9.00738861,16.8314621 12.1645532,18.6452342 15.2763506,19.9014368 C16.0847557,20.170095 16.9229329,19.9383988 17.7826798,19.2041203 L17.7970595,19.1932849 C18.4561987,18.5771836 18.9780215,17.9180444 19.3672873,17.2123228 L19.3708317,17.1980444 C19.7493633,16.4517153 19.6216671,15.7447785 19.0639962,15.2635634" id="Fill-4"></path>
                                <path d="M14.2198443,8.19055069 C14.0968063,8.19055069 13.9941228,8.09151272 13.9881481,7.96493044 C13.9475405,7.12786715 13.7219203,6.48665196 13.3170595,6.05799373 C12.9147304,5.63287981 12.3116924,5.39531019 11.5259709,5.35227221 C11.3981734,5.34508234 11.2991354,5.23287981 11.3063253,5.10153804 C11.3134139,4.97019626 11.4220722,4.8699431 11.5510848,4.87591778 C12.4585279,4.92604436 13.1642494,5.21262664 13.6514392,5.72725955 C14.1361987,6.24067728 14.4060722,6.98457601 14.4526544,7.94103171 C14.4586291,8.07237348 14.3594899,8.18346209 14.2317937,8.19055069 L14.2198443,8.19055069" id="Fill-5"></path>
                                <path d="M16.5220215,8.98072791 L16.5160468,8.98072791 C16.3882494,8.97708234 16.286781,8.86842411 16.2892114,8.73708234 C16.3249582,7.12989247 15.8556924,5.77100639 14.893262,4.69637348 C14.4144772,4.16017095 13.8329076,3.73637348 13.1630342,3.43662664 C12.4920468,3.13687981 11.7098696,2.95186715 10.8406038,2.88614563 C10.7128063,2.87652538 10.6160975,2.76199373 10.6256165,2.63186715 C10.6352367,2.50052538 10.7462241,2.40138614 10.8740215,2.41090512 C12.7296165,2.55065196 14.1971608,3.21090512 15.2371608,4.37515829 C16.2820215,5.54184183 16.7931101,7.01404436 16.7548317,8.74791778 C16.7512873,8.8779431 16.6473886,8.98072791 16.5220215,8.98072791" id="Fill-6"></path>
                                <path d="M18.8793886,9.92452538 C18.7515911,9.92452538 18.6477937,9.81951272 18.6465785,9.68806968 C18.6358443,8.26720892 18.4220722,6.9822469 18.0089076,5.86710766 C17.5980722,4.76017095 16.9784266,3.78700639 16.1664772,2.97505702 C15.3533127,2.16422158 14.4290595,1.54568993 13.4188317,1.13606968 C12.4062747,0.725335504 11.2778696,0.512778542 10.0647051,0.504474744 C9.9369076,0.503259554 9.83300887,0.395816516 9.83422406,0.264474744 C9.83543925,0.133132972 9.93933798,0.0280190481 10.0671354,0.0280190481 L10.0682494,0.0280190481 C12.6152873,0.0471582886 14.7752873,0.923613985 16.4912367,2.63470259 C17.3520975,3.49444943 18.0089076,4.52493044 18.4435405,5.69870259 C18.875743,6.86528487 19.1003506,8.20746209 19.1121987,9.68452538 C19.1134139,9.81586715 19.0095152,9.92331019 18.881819,9.92452538 L18.8793886,9.92452538" id="Fill-7"></path>
                            </g>
                        </g>
                    </g>
                </g>
            </g>
        </g>
    </g>
</svg>